# xmcd
#
# Track frame offsets: 
#        150
#        11217
#        27662
#        39019
#        58618
#        71309
#        86780
#        96226
#        109175
#        126470
#        137349
#        159941
#        170373
#        182819
#        197515
#
# Disc length: 2764 seconds
#
# Revision: 0
# Processed by: cddbd v1.5.2PL0 Copyright (c) Steve Scherf et al.
# Submitted via: ExactAudioCopy v0.99pb5
#
DISCID=c50aca0f
DTITLE=Ferlin Husky - Wings Of A Dove
DYEAR=2003
DGENRE=Country
TTITLE0=Gone
TTITLE1=Giddy Up Go
TTITLE2=A Dear John Letter
TTITLE3=Little Joe
TTITLE4=Me and My Old CB
TTITLE5=Phatom 309
TTITLE6=Truck Drivin Son Of A Gun
TTITLE7=Drunken Driver
TTITLE8=Convoy
TTITLE9=A Fallen Star
TTITLE10=Teddy Bear
TTITLE11=6 Days On The Road
TTITLE12=Don't Fall Asleep On The Wheel
TTITLE13=Truck Drivin Blues
TTITLE14=Wings Of A Dove
EXTD=
EXTT0=Gone
EXTT1=
EXTT2=
EXTT3=
EXTT4=
EXTT5=
EXTT6=
EXTT7=
EXTT8=
EXTT9=
EXTT10=
EXTT11=
EXTT12=
EXTT13=
EXTT14=
PLAYORDER=
